<svg width="55" height="55" viewBox="0 0 55 55" fill="none" xmlns="http://www.w3.org/2000/svg">
<path d="M51.5625 27.3496C51.5625 27.2314 51.5625 27.0972 51.5571 26.9414C51.5518 26.5063 51.541 26.0176 51.5303 25.4966C51.4873 23.998 51.4121 22.5049 51.2939 21.0977C51.1328 19.1587 50.8965 17.542 50.5742 16.3281C50.2341 15.0613 49.5675 13.906 48.641 12.9776C47.7145 12.0492 46.5605 11.3803 45.2944 11.0376C43.7744 10.6294 40.7988 10.377 36.6094 10.2212C34.6167 10.146 32.4844 10.0977 30.352 10.0708C29.6055 10.0601 28.9126 10.0547 28.2896 10.0493H26.7104C26.0874 10.0547 25.3945 10.0601 24.6479 10.0708C22.5156 10.0977 20.3833 10.146 18.3906 10.2212C14.2012 10.3823 11.2202 10.6348 9.70557 11.0376C8.43907 11.3794 7.28465 12.0481 6.358 12.9766C5.43135 13.9052 4.76502 15.0609 4.42578 16.3281C4.09814 17.542 3.86719 19.1587 3.70605 21.0977C3.58789 22.5049 3.5127 23.998 3.46973 25.4966C3.45361 26.0176 3.44824 26.5063 3.44287 26.9414C3.44287 27.0972 3.4375 27.2314 3.4375 27.3496V27.6504C3.4375 27.7686 3.4375 27.9028 3.44287 28.0586C3.44824 28.4937 3.45898 28.9824 3.46973 29.5034C3.5127 31.002 3.58789 32.4951 3.70605 33.9023C3.86719 35.8413 4.10352 37.458 4.42578 38.6719C5.11328 41.2446 7.13281 43.2749 9.70557 43.9624C11.2202 44.3706 14.2012 44.623 18.3906 44.7788C20.3833 44.854 22.5156 44.9023 24.6479 44.9292C25.3945 44.9399 26.0874 44.9453 26.7104 44.9507H28.2896C28.9126 44.9453 29.6055 44.9399 30.352 44.9292C32.4844 44.9023 34.6167 44.854 36.6094 44.7788C40.7988 44.6177 43.7798 44.3652 45.2944 43.9624C47.8672 43.2749 49.8867 41.25 50.5742 38.6719C50.9019 37.458 51.1328 35.8413 51.2939 33.9023C51.4121 32.4951 51.4873 31.002 51.5303 29.5034C51.5464 28.9824 51.5518 28.4937 51.5571 28.0586C51.5571 27.9028 51.5625 27.7686 51.5625 27.6504V27.3496ZM47.6953 27.6289C47.6953 27.7417 47.6953 27.8652 47.6899 28.0103C47.6846 28.4292 47.6738 28.8911 47.6631 29.3906C47.6255 30.8193 47.5503 32.248 47.4375 33.5747C47.2925 35.3042 47.0884 36.7222 46.8359 37.6729C46.5029 38.9136 45.5254 39.8965 44.29 40.2241C43.1621 40.5249 40.3208 40.7666 36.459 40.9116C34.5039 40.9868 32.3984 41.0352 30.2983 41.062C29.5625 41.0728 28.8804 41.0781 28.2681 41.0781H26.7319L24.7017 41.062C22.6016 41.0352 20.5015 40.9868 18.541 40.9116C14.6792 40.7612 11.8325 40.5249 10.71 40.2241C9.47461 39.8911 8.49707 38.9136 8.16406 37.6729C7.91162 36.7222 7.70752 35.3042 7.5625 33.5747C7.44971 32.248 7.37988 30.8193 7.33691 29.3906C7.3208 28.8911 7.31543 28.4238 7.31006 28.0103C7.31006 27.8652 7.30469 27.7363 7.30469 27.6289V27.3711C7.30469 27.2583 7.30469 27.1348 7.31006 26.9897C7.31543 26.5708 7.32617 26.1089 7.33691 25.6094C7.37451 24.1807 7.44971 22.752 7.5625 21.4253C7.70752 19.6958 7.91162 18.2778 8.16406 17.3271C8.49707 16.0864 9.47461 15.1035 10.71 14.7759C11.8379 14.4751 14.6792 14.2334 18.541 14.0884C20.4961 14.0132 22.6016 13.9648 24.7017 13.938C25.4375 13.9272 26.1196 13.9219 26.7319 13.9219H28.2681L30.2983 13.938C32.3984 13.9648 34.4985 14.0132 36.459 14.0884C40.3208 14.2388 43.1675 14.4751 44.29 14.7759C45.5254 15.1089 46.5029 16.0864 46.8359 17.3271C47.0884 18.2778 47.2925 19.6958 47.4375 21.4253C47.5503 22.752 47.6201 24.1807 47.6631 25.6094C47.6792 26.1089 47.6846 26.5762 47.6899 26.9897C47.6899 27.1348 47.6953 27.2637 47.6953 27.3711V27.6289ZM22.7197 34.6973L35.1807 27.4463L22.7197 20.3027V34.6973Z" fill="#B8096C"/>
</svg>
